<?xml version="1.0" encoding="UTF-8" standalone="no"?>
<!DOCTYPE svg PUBLIC "-//W3C//DTD SVG 1.1//EN"
 "http://www.w3.org/Graphics/SVG/1.1/DTD/svg11.dtd">
<!-- Generated by graphviz version 2.48.0 (20210717.1556)
 -->
<!-- Title: DefaultWeaver_join_point_hierarchy_join_point_hierarchy Pages: 1 -->
<svg width="157pt" height="138pt"
 viewBox="0.00 0.00 157.00 138.00" xmlns="http://www.w3.org/2000/svg" xmlns:xlink="http://www.w3.org/1999/xlink">
<g id="graph0" class="graph" transform="scale(1 1) rotate(0) translate(4 134)">
<title>DefaultWeaver_join_point_hierarchy_join_point_hierarchy</title>
<polygon fill="white" stroke="transparent" points="-4,4 -4,-134 153,-134 153,4 -4,4"/>
<!-- file -->
<g id="node1" class="node">
<title>file</title>
<polygon fill="#b2dfee" stroke="#b2dfee" points="146.5,-130 92.5,-130 92.5,-111 146.5,-111 146.5,-130"/>
<text text-anchor="middle" x="119.5" y="-118" font-family="Times New Roman,serif" font-size="10.00">file</text>
</g>
<!-- joinpoint -->
<g id="node2" class="node">
<title>joinpoint</title>
<polygon fill="#b2dfee" stroke="#b2dfee" points="54,-74 0,-74 0,-55 54,-55 54,-74"/>
<text text-anchor="middle" x="27" y="-62" font-family="Times New Roman,serif" font-size="10.00">joinpoint</text>
</g>
<!-- file&#45;&gt;joinpoint -->
<g id="edge1" class="edge">
<title>file&#45;&gt;joinpoint</title>
<path fill="none" stroke="black" d="M102.74,-110.75C88.85,-102.15 68.4,-89.5 52.41,-79.6"/>
<polygon fill="black" stroke="black" points="53.93,-76.43 43.58,-74.14 50.25,-82.38 53.93,-76.43"/>
</g>
<!-- folder -->
<g id="node3" class="node">
<title>folder</title>
<polygon fill="#b2dfee" stroke="#b2dfee" points="146.5,-93 92.5,-93 92.5,-74 146.5,-74 146.5,-93"/>
<text text-anchor="middle" x="119.5" y="-81" font-family="Times New Roman,serif" font-size="10.00">folder</text>
</g>
<!-- folder&#45;&gt;joinpoint -->
<g id="edge2" class="edge">
<title>folder&#45;&gt;joinpoint</title>
<path fill="none" stroke="black" d="M92.32,-78C83.51,-76.15 73.51,-74.05 64.06,-72.07"/>
<polygon fill="black" stroke="black" points="64.62,-68.61 54.12,-69.98 63.19,-75.46 64.62,-68.61"/>
</g>
<!-- function -->
<g id="node4" class="node">
<title>function</title>
<polygon fill="#b2dfee" stroke="#b2dfee" points="146.5,-56 92.5,-56 92.5,-37 146.5,-37 146.5,-56"/>
<text text-anchor="middle" x="119.5" y="-44" font-family="Times New Roman,serif" font-size="10.00">function</text>
</g>
<!-- function&#45;&gt;joinpoint -->
<g id="edge3" class="edge">
<title>function&#45;&gt;joinpoint</title>
<path fill="none" stroke="black" d="M92.32,-51.71C83.51,-53.46 73.51,-55.45 64.06,-57.33"/>
<polygon fill="black" stroke="black" points="63.24,-53.92 54.12,-59.31 64.61,-60.79 63.24,-53.92"/>
</g>
<!-- workspace -->
<g id="node5" class="node">
<title>workspace</title>
<polygon fill="#b2dfee" stroke="#b2dfee" points="149,-19 90,-19 90,0 149,0 149,-19"/>
<text text-anchor="middle" x="119.5" y="-7" font-family="Times New Roman,serif" font-size="10.00">workspace</text>
</g>
<!-- workspace&#45;&gt;joinpoint -->
<g id="edge4" class="edge">
<title>workspace&#45;&gt;joinpoint</title>
<path fill="none" stroke="black" d="M102.74,-19.08C88.94,-27.47 68.65,-39.79 52.7,-49.49"/>
<polygon fill="black" stroke="black" points="50.61,-46.66 43.89,-54.84 54.25,-52.64 50.61,-46.66"/>
</g>
</g>
</svg>
